.
 
http://www.scenetime.com    -   SceneTime [ We been having it ] !!!


How come you press harder on a remote control when you know the battery is dead? so you better seed to get speed ;)

        Seed back for speed


...................................NFO:.................................................








































          
          
              
              
                    
                    
                    
                    

Rammbock.Berlin.Undead.2010.DVDRiP.XviD.READNFO-SiC

Poster:
[img]http://leetleech.org/images/18132886212528455899.jpg[/img]

IMDB Link:
http://www.imdb.com/title/tt1583356/

Description:
Just when Michael arrives in Berlin to visit his ex-girlfriend Gabi, a terrible virus starts spreading across the city at a rapid pace, turning people into mindless homicidal maniacs. Much to Michael's concern, Gabi's not home; instead, he meets Harper, a teenage plumber's apprentice at work in her apartment block. Together, they manage to barricade themselves when raging hordes of infected people swarm the building. Surrounded by these thirsty zombies, Michael and Harper have their hands full to survive - and it will take all of their ingenuity to make their way out to try and find Gabi.

General
Complete name                    : Rammbock.Berlin.Undead.2010.DVDRiP.XviD-SiC.avi
Format                           : AVI
Format/Info                      : Audio Video Interleave
File size                        : 705 MiB
Duration                         : 1h 1mn
Overall bit rate                 : 1 599 Kbps
Writing application              : VirtualDubMod 1.5.4.1 (build 2178/release)
Writing library                  : VirtualDubMod build 2178/release

Video
ID                               : 0
Format                           : MPEG-4 Visual
Format profile                   : Advanced Simple@L5
Format settings, BVOP            : 1
Format settings, QPel            : No
Format settings, GMC             : No warppoints
Format settings, Matrix          : Custom
Codec ID                         : XVID
Codec ID/Hint                    : XviD
Duration                         : 1h 1mn
Bit rate                         : 1 144 Kbps
Width                            : 672 pixels
Height                           : 384 pixels
Display aspect ratio             : 16:9
Frame rate                       : 29.970 fps
Color space                      : YUV
Chroma subsampling               : 4:2:0
Bit depth                        : 8 bits
Scan type                        : Progressive
Compression mode                 : Lossy
Bits/(Pixel*Frame)               : 0.148
Stream size                      : 504 MiB (71%)
Writing library                  : XviD 64

Audio
ID                               : 1
Format                           : AC-3
Format/Info                      : Audio Coding 3
Mode extension                   : CM (complete main)
Codec ID                         : 2000
Duration                         : 1h 1mn
Bit rate mode                    : Constant
Bit rate                         : 448 Kbps
Channel(s)                       : 6 channels
Channel positions                : Front: L C R, Side: L R, LFE
Sampling rate                    : 48.0 KHz
Bit depth                        : 16 bits
Compression mode                 : Lossy
Stream size                      : 197 MiB (28%)
Alignment                        : Split accross interleaves
Interleave, duration             : 96 ms (2.88 video frames)
Interleave, preload duration     : 96 ms
Language                         : German




Screenshots:
[img]http://leetleech.org/images/00904233841401494355.png[/img]
[img]http://leetleech.org/images/46734320217456667472.png[/img]
[img]http://leetleech.org/images/75668999590842987735.png[/img]
[img]http://leetleech.org/images/55900179159311694829.png[/img]
[img]http://leetleech.org/images/24621226638317708777.png[/img]

Note: English subtitles hardcoded

Encoder: Thefuzz

Enjoy!

Respects to CaptainHomey, Cyanide, CM8, Rx, Pirate666, THC, ELEKTRI4KA, Killerhz, XtremE, PA, YeFsTe and everyone in the struggle...